<?xml version="1.0" encoding="utf-8"?>
<!-- Generator: Adobe Illustrator 20.1.0, SVG Export Plug-In . SVG Version: 6.00 Build 0)  -->
<svg version="1.1" id="圖層_1" xmlns="http://www.w3.org/2000/svg" xmlns:xlink="http://www.w3.org/1999/xlink" x="0px" y="0px"
	 viewBox="0 0 220.4 209.1" style="enable-background:new 0 0 220.4 209.1;" xml:space="preserve">
<style type="text/css">
	.st0{fill:#FFFFFF;}
	.st1{fill:#E7B526;}
	.st2{fill:#F0BB1A;stroke:#E7B526;stroke-width:0.5;stroke-miterlimit:10;}
	.st3{fill:none;stroke:#2A221C;stroke-width:2.5;stroke-linecap:round;stroke-linejoin:round;stroke-miterlimit:10;}
	.st4{fill:#FFF100;}
	.st5{fill:none;}
	.st6{fill:#2A211B;}
	.st7{fill:#F0BB1A;}
	.st8{fill:#2A221C;}
</style>
<g>
</g>
<g>
	<g>
		<g>
			<path class="st5" d="M64.3,63.3c-3.9,2.8-7.6,6-10.9,9.4l12.2-2.2L64.3,63.3z"/>
		</g>
		<g>
			<path class="st5" d="M107.7,201.7c-27.6,0-51.8-14.6-65.5-36.5l-5.7,1c14.3,24.4,40.9,40.8,71.1,40.8c40.6,0,74.4-29.4,81.2-68.1
				l-5.7,1C176,175.1,144.9,201.7,107.7,201.7z"/>
		</g>
		<g>
			<path class="st5" d="M140.7,57.2c-3.3-1.6-6.8-3-10.3-4.2l1,5.8L140.7,57.2z"/>
		</g>
		<g>
			<path class="st5" d="M107.7,199.6c36,0,66.1-25.4,73.4-59.3L44.3,164.8C57.7,185.7,81.1,199.6,107.7,199.6z"/>
		</g>
		<g>
			<path class="st5" d="M63.9,61.1l-1-5.8c-8.1,5.2-15.2,11.8-20.9,19.5l8.2-1.5C54.2,68.8,58.8,64.6,63.9,61.1z"/>
		</g>
		<g>
			<path class="st5" d="M143.9,56.6l8.1-1.5c-7.1-4.5-14.9-8-23.2-10.3l1.1,5.9C134.8,52.2,139.5,54.2,143.9,56.6z"/>
		</g>
		<g>
			<path class="st1" d="M152.1,55.1l2.9-0.5c-8-5.4-16.9-9.5-26.5-11.9l0.4,2.2C137.2,47.1,145,50.6,152.1,55.1z"/>
		</g>
		<g>
			<path class="st1" d="M62.9,55.4l-0.4-2.1C53.3,59,45.4,66.5,39,75.3l2.9-0.5C47.7,67.2,54.8,60.6,62.9,55.4z"/>
		</g>
		<g>
			<path class="st1" d="M188.9,139c-6.8,38.6-40.6,68.1-81.2,68.1c-30.3,0-56.8-16.4-71.1-40.8l-2.1,0.4
				c14.6,25.3,42,42.5,73.3,42.5c41.8,0,76.6-30.5,83.3-70.5L188.9,139z"/>
		</g>
		<g>
			<path class="st1" d="M64.3,63.3l-0.4-2.2c-5.1,3.5-9.7,7.6-13.8,12.2l3.3-0.6C56.7,69.3,60.4,66.1,64.3,63.3z"/>
		</g>
		<g>
			<path class="st1" d="M107.7,199.6c-26.6,0-50-13.9-63.3-34.8l-2.1,0.4c13.6,21.9,37.9,36.5,65.5,36.5c37.2,0,68.4-26.5,75.5-61.7
				l-2.2,0.4C173.8,174.2,143.6,199.6,107.7,199.6z"/>
		</g>
		<g>
			<path class="st1" d="M130.3,53c3.6,1.1,7,2.5,10.3,4.2l3.3-0.6c-4.4-2.4-9.1-4.3-14-5.8L130.3,53z"/>
		</g>
	</g>
	<g>
		<g>
			<path class="st0" d="M17.5,93.1c1-0.4,1.9-0.7,2.8-0.9c0.9-0.3,1.9-0.5,3-0.8c0.8-0.2,1.8-0.4,2.9-0.6c-0.2,1-0.5,2.1-0.7,3.2
				c-0.3,1.6-0.7,3.2-1,4.9c-0.3,1.7-0.7,3.4-1,5.1c-0.3,1.7-0.6,3.4-0.9,5c-0.1,1-0.2,1.9-0.3,2.9c-0.1,1.1-0.1,2,0,2.7
				c0.2,1,0.6,1.7,1.3,2.3c0.5,0.4,1.1,0.6,2,0.6c0.4,0,0.8,0,1.3-0.1l0.8-0.1l-0.2-0.8c-0.1-0.2-0.1-0.4-0.1-0.5
				c0-0.1-0.1-0.2-0.1-0.3c-0.1-0.7-0.2-1.4-0.2-2.1c0-0.7,0-1.5,0.1-2.4l0.2-3.2c0.3-3.3,0.7-6.5,1.1-9.6c0.4-2.9,0.9-5.6,1.4-8.1
				c0.7-0.1,1.3-0.3,2-0.4c0.9-0.2,1.8-0.5,2.6-0.9c0.8-0.3,1.4-0.8,2-1.3l0.4-0.1l0-0.6c0-0.4-0.3-0.7-0.8-0.8
				c-0.2,0-0.7-0.2-1.5-0.4l-0.3,0c-0.9,0.1-1.7,0.2-2.6,0.3c-0.9,0.1-1.9,0.2-2.8,0.3c-1,0.1-2.1,0.3-3.3,0.5
				c-1.7,0.3-3.3,0.7-4.6,1.1c-1.4,0.5-2.5,1.1-3.3,1.8c-0.9,0.8-1.3,1.8-1.2,3l0.1,1L17.5,93.1z"/>
		</g>
		<g>
			<path class="st0" d="M36.3,108.1c0.2,1.3,0.8,2.5,1.7,3.5c0.9,1,2,1.7,3.3,2.1c0.8,0.3,1.7,0.4,2.6,0.4c0.6,0,1.2-0.1,1.8-0.2
				c1.8-0.3,3.4-1,4.7-2.1c1.3-1.1,2.5-2.4,3.5-4c1-1.5,1.7-3.3,2.3-5.1l0.2-0.7l-2.3-1l-0.2,0.8c-0.4,1.4-1,2.7-1.8,4
				c-0.8,1.3-1.7,2.4-2.8,3.3c-1,0.9-2.1,1.4-3.2,1.6c-1,0.2-1.8,0.1-2.4-0.2c-0.6-0.3-1.2-0.8-1.5-1.4c-0.4-0.7-0.6-1.3-0.8-2
				c-0.2-1.1-0.1-2.2,0.3-3.5c0.4-1.2,1.1-2.4,2.1-3.5c1-1,2.2-1.8,3.7-2.3l1.6-0.6l-1.5-0.8c-0.9-0.5-1.6-1.2-2.1-2
				c-0.5-0.9-0.8-1.8-1-2.7c-0.2-1-0.2-2.1,0-3.1c0.2-1,0.5-1.8,1.1-2.5c0.5-0.6,1.2-1,2.1-1.2c0.6-0.1,1.1-0.1,1.5,0.2
				c0.3,0.2,0.5,0.5,0.6,1c0.1,0.7,0,1.4-0.4,2.2c-0.4,0.9-1,1.7-1.7,2.6l-0.4,0.5l0.4,0.5c0.3,0.4,0.6,0.7,1,1
				c0.5,0.3,1,0.5,1.5,0.4c0.6-0.1,1.2-0.6,1.7-1.4c0.4-0.7,0.7-1.5,0.9-2.5c0.2-1,0.2-2,0-3c-0.3-1.5-0.9-2.6-2-3.3
				c-1-0.7-2.3-0.8-3.9-0.6c-1.6,0.3-3,0.9-4.1,1.9c-1.1,1-1.9,2.2-2.4,3.5c-0.5,1.4-0.6,2.7-0.4,4.1c0.2,1.1,0.6,2.1,1.3,3.1
				c0.4,0.6,0.9,1.1,1.5,1.6c-0.8,0.4-1.6,0.8-2.3,1.3c-1.1,0.8-2,1.8-2.7,2.8c-0.7,1.1-1.2,2.2-1.5,3.4
				C36.1,105.7,36.1,106.9,36.3,108.1z"/>
		</g>
		<g>
			<path class="st0" d="M61,94.4c-0.8,3.1-1.5,5.9-2.1,8.2l-1.5,5.6c-0.4,1.5-0.6,2.4-0.7,2.8l-0.2,1l1-0.2c1-0.2,1.8-0.9,2.5-2.1
				c0.6-1,1.1-2.6,1.7-4.7c0.5-2,1.2-4.7,1.9-7.9c0.5-2.3,1.1-5.1,1.9-8.3c0.1,0.6,0.2,1.1,0.3,1.7c0.2,1.2,0.3,2.3,0.5,3.6
				c0.2,1.2,0.3,2.4,0.5,3.6c0.2,1.2,0.3,2.2,0.5,3.2c0.3,1.7,0.7,3,1.1,3.9c0.7,1.7,2,1.7,2.6,1.6c0.2,0,0.4-0.1,0.5-0.2
				c0.1,0,0.2-0.1,0.4-0.2l0.3-0.2l0-0.4c0.1-0.8,0.3-1.9,0.6-3.3c0.3-1.3,0.6-2.7,1-4.3c0.4-1.5,0.8-3.1,1.2-4.7
				c0.3-1.2,0.7-2.4,1-3.5c-0.1,1.6-0.2,3.2-0.2,4.7c-0.1,3.2,0.1,6.1,0.6,8.9c0.2,1.1,0.5,2,0.8,2.7c0.4,0.8,0.9,1.3,1.7,1.6
				c0.7,0.3,1.5,0.3,2.6,0.1l1-0.2l-0.4-0.9c-0.2-0.4-0.4-0.8-0.6-1c-0.1-0.2-0.2-0.4-0.3-0.7c-0.1-0.3-0.2-0.7-0.3-1.3
				c-0.2-1.1-0.4-2.5-0.5-4.1c-0.1-1.6-0.2-3.3-0.2-5.1c0-1.8,0-3.6,0.1-5.4c0.1-1.8,0.1-3.4,0.2-4.9c0.1-1.3,0.2-2.4,0.3-3.4
				c0.1-1,0.2-1.7,0.3-2.1l0.2-0.8l-0.8-0.1c-0.8-0.1-1.3-0.2-1.8-0.1c-0.6,0.1-1.1,0.4-1.4,0.9c-0.2,0.3-0.5,0.8-0.7,1.4
				c-0.2,0.6-0.6,1.4-1.1,2.6c-0.5,1.1-1,2.5-1.5,4c-0.5,1.6-1.1,3.2-1.6,4.9c-0.5,1.7-1,3.5-1.4,5.2c0,0,0,0,0,0
				c-0.1-1.2-0.2-2.4-0.4-3.6c-0.2-1.6-0.4-3.2-0.7-4.7c-0.4-2.3-0.9-4.1-1.5-5.4c-0.6-1.3-1.3-2.2-2.1-2.6
				c-1.5-0.8-3.5-0.6-5.4,0.6c-0.9,0.5-1.6,1.2-2.3,1.9c-0.6,0.8-1.1,1.6-1.5,2.4c-0.4,0.9-0.5,1.8-0.3,2.8c0.1,0.5,0.3,1,0.6,1.6
				c0.3,0.5,0.7,1,1.2,1.3c0.6,0.4,1.2,0.5,1.9,0.4l0.9-0.2l-0.3-0.8c-0.1-0.3-0.2-0.5-0.2-0.7c-0.1-0.2-0.1-0.4-0.1-0.7
				c-0.1-0.8-0.1-1.6,0-2.5c0.1-0.9,0.4-1.6,0.9-2.3c0.4-0.6,1-0.9,1.8-1.1c0.2,0,0.3,0,0.4,0c0,0,0,0,0,0.1c0,0.1,0,0.3,0,0.4
				c0,0.2-0.1,0.4-0.1,0.5C62.7,87.8,61.9,91.2,61,94.4z M63.7,82.9L63.7,82.9C63.7,82.9,63.7,82.9,63.7,82.9
				C63.7,82.9,63.7,82.9,63.7,82.9z"/>
		</g>
		<g>
			<path class="st0" d="M85.8,79.5c0.2,0.2,0.5,0.4,0.8,0.5c0.9,0.4,1.3,0.3,2.1-0.5c0.4-0.3,0.8-0.7,1.4-1.1
				c0.2-0.1,0.4-0.3,0.7-0.4c-0.4,1.6-0.7,3.2-1.1,4.7c-0.4,2-0.8,4-1.1,5.9c-0.3,1.9-0.6,4-0.9,6.1c-0.3,2.1-0.6,4.3-0.9,6.7
				l-0.1,1.1c-0.1,0.4,0,0.8,0,1.2c0.1,0.6,0.5,1.4,1.6,1.8c0.5,0.2,1.1,0.3,1.6,0.3c0.3,0,0.5,0,0.8-0.1l0.6-0.1l0.1-0.6
				c0.2-2,0.4-4.2,0.6-6.7c0.2-2.2,0.4-4.5,0.7-6.8c0.4-0.1,0.9-0.2,1.6-0.4c0.8-0.2,1.8-0.5,2.8-0.9c1.1-0.4,2.1-0.9,3.1-1.5
				c1-0.6,2-1.3,2.9-2.1c0.9-0.8,1.6-1.8,2-2.9c0.5-1.1,0.6-2.4,0.3-3.8c-0.2-1.3-0.8-2.4-1.6-3.3c-0.8-0.8-1.8-1.5-2.9-1.9
				c-1.1-0.4-2.3-0.7-3.6-0.8c-2.3-0.2-4.5,0.2-6.7,1.1c-1,0.4-1.9,0.9-2.8,1.3c-0.8,0.5-1.6,0.9-2.2,1.3l-0.4,0.3l0.1,0.5
				C85.3,79,85.5,79.3,85.8,79.5z M92.9,89.1c0.3-2.2,0.5-4.4,0.9-6.5c0.3-2.2,0.8-4.2,1.2-5.9c0.9-0.1,1.7-0.1,2.5,0.1
				c0.9,0.2,1.7,0.5,2.3,1.1c0.6,0.5,1,1.3,1.2,2.4c0.2,1.1,0.1,2.2-0.3,3.1c-0.4,1-1.1,1.9-2,2.6c-0.9,0.8-2,1.5-3.2,2
				C94.7,88.5,93.8,88.8,92.9,89.1z"/>
		</g>
		<g>
			<path class="st0" d="M109.7,82.9c0.7,0.5,1.6,0.9,2.6,1.2c-0.2,1.2-0.4,2.5-0.5,3.8c-0.2,1.5-0.4,2.9-0.6,4.3
				c-0.2,1.1-0.4,2.1-0.7,3c-0.7,0-1.3-0.1-1.9-0.1c-2.4,0-4,0.5-4.8,1.3c-0.5,0.6-0.7,1.2-0.6,1.9c0.1,0.5,0.4,1.1,0.9,1.6
				c0.5,0.5,1.1,1,1.8,1.3c0.5,0.2,1.1,0.3,1.6,0.3c1.2,0,2.4-0.4,3.3-1.1c0.5-0.4,1-1,1.5-1.6c1,0.2,2,0.5,3.1,0.7
				c1.2,0.3,2.4,0.5,3.6,0.7c1.2,0.2,2.3,0.2,3.2,0c1.1-0.2,2-0.7,2.7-1.5c0.7-0.8,1.1-1.9,1.3-3.3l0.3-1.8l-1.5,1.1
				c-0.4,0.3-0.8,0.5-1.2,0.7c-0.9,0.4-2.3,0.6-4.1,0.6c-1.1,0-2.3-0.1-3.4-0.2c-0.8-0.1-1.6-0.2-2.3-0.3c0.3-0.9,0.6-1.9,0.9-3
				c0.3-1.4,0.7-2.9,0.9-4.4c0.2-1.3,0.4-2.7,0.6-4c1.6-0.3,3-0.9,4.1-1.7c1.1-0.8,2-1.8,2.6-2.8c0.6-1,1-2.1,1.2-3.2
				c0.2-1.1,0.2-2.1,0.1-2.9c-0.2-1.2-0.6-2-1.3-2.6c-0.6-0.5-1.3-0.9-2.1-1c-1.9-0.4-3.5,0.1-4.8,1.5c-0.7,0.8-1.3,1.7-1.8,2.9
				c-0.5,1.1-0.9,2.4-1.1,3.8c-0.2,1-0.4,2.1-0.6,3.2c-0.2-0.1-0.3-0.3-0.5-0.4c-0.4-0.4-0.6-0.9-0.7-1.6c0-0.3-0.1-0.6-0.1-1
				c0-0.4,0.1-0.7,0.2-0.9l0.7-1.4l-1.5,0.3c-0.7,0.1-1.3,0.5-1.8,1c-0.4,0.5-0.7,1-0.9,1.6c-0.2,0.6-0.2,1.2-0.1,1.8
				C108.3,81.4,108.8,82.2,109.7,82.9z M108.9,98.2c-0.1,0.1-0.1,0.1-0.2,0.2c-0.2,0.2-0.6,0.4-1,0.5c-0.5,0.1-0.9,0-1.3-0.2
				c-0.4-0.2-0.5-0.4-0.5-0.5c0,0,0,0,0,0c0,0,0.1-0.1,0.5-0.2c0.4-0.1,1-0.1,1.6,0C108.2,98.1,108.6,98.1,108.9,98.2z M119.9,72.4
				c0.1,0,0.2,0,0.3,0.1c0,0,0.2,0.1,0.3,0.8c0.1,0.6,0.1,1.3,0,2.2c-0.1,0.9-0.4,1.8-0.8,2.7c-0.4,0.9-0.9,1.7-1.6,2.3
				c-0.3,0.4-0.7,0.6-1.2,0.9c0.2-1.4,0.4-2.7,0.7-3.9c0.3-1.5,0.7-2.8,1.1-3.7C119,72.9,119.4,72.5,119.9,72.4
				C119.8,72.4,119.9,72.4,119.9,72.4z"/>
		</g>
		<g>
			<path class="st0" d="M134.8,85c0.6,0,1.2-0.1,1.9-0.1c0.6,0,1.3-0.1,2.1-0.1c0,0.7,0,1.4,0.1,2c0.1,0.8,0.1,1.5,0.3,2.2
				c0.3,1.7,0.8,3.1,1.5,4c0.8,1.1,1.9,1.5,3.3,1.3c1.5-0.3,2.8-1.2,3.8-2.8c1-1.5,1.7-3.4,2.1-5.5l0.1-0.5l-1.9-1.4l-0.3,1
				c-0.6,1.9-1.2,3.4-1.8,4.3c-0.7,1.1-1.2,1.3-1.3,1.3c-0.1,0-0.2,0-0.3-0.2c-0.2-0.4-0.4-1-0.6-1.8c-0.2-1-0.3-2.2-0.3-3.5
				c0-1.4,0-2.8,0-4.3c0.1-1.5,0.2-3,0.3-4.5c0.2-1.5,0.3-2.9,0.5-4.2c0.2-1.2,0.4-2.3,0.6-3.1c0.3-1.1,0.5-1.3,0.5-1.3l0.6-0.7
				l-0.8-0.5c-0.5-0.3-1-0.6-1.5-0.8c-0.6-0.2-1.1-0.3-1.5-0.2c-0.7,0.1-1.5,0.8-2.4,2.2c-0.7,0.9-1.4,2.1-2.2,3.6
				c-0.8,1.4-1.7,3.1-2.6,4.9c-0.8,1.7-1.7,3.4-2.5,5.2c-0.3,0-0.6,0-0.9,0.1c-1.7,0.1-3,0.5-4,1.2c-0.8,0.6-1.3,1.4-1.5,2.4
				l-0.2,1.1l1.9-0.3c0.8-0.1,1.5-0.3,2.2-0.4c0.3,0,0.6-0.1,0.9-0.1c-0.5,1.3-1,2.6-1.4,3.7c-0.5,1.6-1,3-1.2,4.2
				c-0.3,1.3-0.4,2.3-0.3,3c0.1,0.4,0.3,0.8,0.6,1.2c0.3,0.5,0.9,0.9,1.8,1.2l0.8,0.3l0.2-0.8c0.5-2.2,1.1-4.5,1.8-6.9
				C133.5,89.2,134.2,87.1,134.8,85z M136.1,81.5c0.6-1.6,1.2-3.1,1.8-4.5c0.7-1.6,1.4-3,2-4.2c0,0.1,0,0.2-0.1,0.4
				c-0.2,1.4-0.5,3-0.6,4.5c-0.1,1.3-0.3,2.6-0.3,3.9c-0.5,0-1-0.1-1.5-0.1C137,81.5,136.5,81.5,136.1,81.5z"/>
		</g>
		<g>
			<path class="st0" d="M150.3,69.3c1-0.4,1.9-0.7,2.8-0.9c0.9-0.3,1.9-0.5,3-0.8c0.8-0.2,1.8-0.4,2.9-0.6c-0.2,1-0.5,2.1-0.7,3.2
				c-0.3,1.6-0.7,3.2-1,4.9c-0.3,1.7-0.7,3.5-1,5.1c-0.3,1.7-0.6,3.4-0.9,5c-0.1,0.9-0.2,1.9-0.3,2.9c-0.1,1.1-0.1,2,0,2.7
				c0.2,1,0.6,1.7,1.3,2.3c0.5,0.4,1.1,0.6,2,0.6c0.4,0,0.8,0,1.3-0.1l0.8-0.1l-0.2-0.8c-0.1-0.2-0.1-0.4-0.1-0.5
				c0-0.1-0.1-0.2-0.1-0.3c-0.1-0.7-0.2-1.4-0.2-2.1c0-0.7,0-1.5,0.1-2.4l0.2-3.2c0.3-3.3,0.7-6.5,1.1-9.6c0.4-2.9,0.9-5.6,1.4-8.1
				c0.7-0.1,1.4-0.3,2-0.4c0.9-0.2,1.8-0.5,2.6-0.9c0.8-0.3,1.4-0.8,2-1.3l0.4-0.1l0-0.6c0-0.4-0.3-0.7-0.8-0.8
				c-0.2,0-0.7-0.2-1.5-0.4l-0.3,0c-0.9,0.1-1.7,0.2-2.6,0.3c-0.9,0.1-1.9,0.2-2.8,0.3c-1,0.1-2.1,0.3-3.3,0.5
				c-1.7,0.3-3.3,0.7-4.6,1.1c-1.4,0.5-2.5,1.1-3.3,1.8c-0.9,0.8-1.3,1.8-1.2,3l0.1,1L150.3,69.3z"/>
		</g>
		<g>
			<path class="st0" d="M169.1,84.3c0.2,1.3,0.8,2.5,1.7,3.5c0.9,1,2,1.7,3.3,2.1c0.8,0.3,1.7,0.4,2.6,0.4c0.6,0,1.2-0.1,1.8-0.2
				c1.8-0.3,3.4-1,4.7-2.1c1.3-1.1,2.5-2.4,3.5-4c1-1.5,1.7-3.3,2.3-5.1l0.2-0.7l-2.3-1l-0.2,0.8c-0.4,1.4-1,2.7-1.8,4
				c-0.8,1.3-1.7,2.4-2.8,3.3c-1,0.9-2.1,1.4-3.2,1.6c-1,0.2-1.8,0.1-2.4-0.2c-0.6-0.3-1.2-0.8-1.5-1.4c-0.4-0.7-0.6-1.3-0.8-2
				c-0.2-1.1-0.1-2.2,0.3-3.5c0.4-1.2,1.1-2.4,2.1-3.5c1-1,2.2-1.8,3.7-2.3l1.6-0.6l-1.5-0.8c-0.9-0.5-1.6-1.2-2.1-2
				c-0.5-0.9-0.8-1.8-1-2.7c-0.2-1-0.2-2.1,0-3.1c0.2-1,0.5-1.8,1.1-2.5c0.5-0.6,1.2-1,2.1-1.2c0.6-0.1,1.1-0.1,1.5,0.2
				c0.3,0.2,0.5,0.5,0.6,1c0.1,0.7,0,1.4-0.4,2.2c-0.4,0.9-1,1.7-1.7,2.6l-0.4,0.5l0.4,0.5c0.3,0.4,0.6,0.7,1,1
				c0.5,0.3,1,0.5,1.5,0.4c0.6-0.1,1.2-0.6,1.7-1.4c0.4-0.7,0.7-1.5,0.9-2.5c0.2-1,0.2-2,0-3c-0.3-1.5-0.9-2.6-2-3.3
				c-1-0.7-2.3-0.8-3.9-0.6c-1.6,0.3-3,0.9-4.1,1.9c-1.1,1-1.9,2.2-2.4,3.5c-0.5,1.4-0.6,2.7-0.4,4.1c0.2,1.1,0.6,2.1,1.3,3.1
				c0.4,0.6,0.9,1.1,1.5,1.6c-0.8,0.4-1.6,0.8-2.3,1.3c-1.1,0.8-2,1.8-2.7,2.8c-0.7,1.1-1.2,2.2-1.5,3.4
				C168.9,82,168.9,83.2,169.1,84.3z"/>
		</g>
		<g>
			<path class="st0" d="M17.2,154.6c-1.3-0.9-2.4-1.9-3.4-2.8c-1-1-2-2-2.9-3c-0.6-0.7-1.3-1.5-2-2.2c0.2-0.1,0.5-0.1,0.8-0.2
				c0.8-0.2,1.8-0.5,2.8-0.9c1-0.4,2-0.9,3-1.4c1-0.6,1.9-1.2,2.7-2c0.8-0.8,1.4-1.7,1.8-2.7c0.4-1,0.5-2.2,0.3-3.5
				c-0.2-1.3-0.8-2.5-1.6-3.3c-0.8-0.8-1.8-1.5-2.9-1.9c-1.1-0.4-2.3-0.6-3.5-0.7c-2.4-0.1-4.6,0.3-6.8,1.2c-1,0.4-2,0.9-2.8,1.4
				c-0.8,0.5-1.5,0.9-2.2,1.3L0,134l0.1,0.5c0.1,0.3,0.3,0.6,0.6,0.9c0.3,0.2,0.6,0.4,0.9,0.5c0.4,0.2,0.7,0.2,0.9,0.2
				c0.2,0,0.5-0.2,1.2-0.7c0.4-0.3,0.9-0.7,1.5-1.1c0.3-0.2,0.5-0.3,0.8-0.5c-0.3,1.4-0.6,2.6-0.9,3.8c-0.4,1.6-0.7,3.2-1,4.7
				c-0.3,1.5-0.6,3-0.8,4.5c-0.3,1.5-0.5,3.2-0.8,4.9l-0.8,5.8c0,0.3-0.1,0.7-0.1,1.1c-0.1,0.5-0.1,0.8,0,1.2
				c0.2,0.8,0.7,1.5,1.5,1.8c0.5,0.2,1.1,0.3,1.6,0.3c0.2,0,0.5,0,0.7-0.1l0.6-0.1l0.1-0.6c0.2-1.9,0.4-4,0.6-6.3
				c0.1-1.6,0.3-3.3,0.5-5c0.4,0.5,0.7,1,1.1,1.5c0.9,1.1,1.8,2.2,2.8,3.3c1,1.1,2,2.1,3,3c1,0.9,1.9,1.6,2.8,2.1
				c1,0.6,1.8,0.8,2.6,0.7c0.5-0.1,1-0.4,1.5-0.8c0.5-0.5,0.9-1,0.9-1.6l0.1-0.5l-0.5-0.2C19.9,156.4,18.4,155.5,17.2,154.6z
				 M8.7,138.1c0.3-2.1,0.7-3.9,1.2-5.6c0.8-0.1,1.7-0.1,2.5,0c0.9,0.1,1.6,0.4,2.3,1c0.6,0.5,1,1.3,1.2,2.3
				c0.2,1.1,0.1,2.1-0.3,2.9c-0.4,0.9-1.1,1.7-1.9,2.5c-0.9,0.7-1.9,1.4-3.1,1.9c-0.8,0.4-1.7,0.7-2.6,1
				C8.1,142.1,8.4,140.1,8.7,138.1z"/>
		</g>
		<g>
			<path class="st0" d="M58.7,140c-0.7-0.8-1.6-1.5-2.7-2c-1-0.5-2-0.9-3.1-1.2c-1-0.3-2-0.7-2.9-1c-0.8-0.3-1.6-0.7-2.1-1.2
				c-0.5-0.4-0.8-0.9-0.9-1.6c-0.1-0.6-0.1-1.3,0.2-2.1c0.2-0.8,0.6-1.7,1.1-2.5c0.5-0.8,1.2-1.6,1.9-2.2c0.8-0.6,1.6-1,2.6-1.2
				c0.8-0.2,1.1,0,1.1,0c0.1,0.1,0.2,0.2,0.3,0.5c0.1,0.4,0.1,0.9,0,1.5c-0.1,0.6-0.2,1.3-0.4,2c-0.2,0.7-0.3,1.5-0.4,2.1
				c-0.1,0.7-0.1,1.4,0,2c0.1,0.6,0.4,1.1,0.8,1.5c0.4,0.4,1,0.6,1.6,0.6l0.5,0l0.2-0.5c0.3-0.7,0.6-1.6,0.9-2.6
				c0.3-1,0.5-2.1,0.6-3.1c0.1-1.1,0.1-2.2-0.1-3.1c-0.2-1.2-0.8-2.2-1.7-2.9c-0.9-0.7-2.3-0.9-4-0.6c-1.7,0.3-3.1,0.9-4.4,1.8
				c-1.2,0.9-2.2,1.9-3,3.1c-0.8,1.2-1.3,2.4-1.6,3.7c-0.3,1.3-0.4,2.5-0.2,3.5c0.2,1.2,0.7,2.3,1.5,3c0.7,0.7,1.6,1.3,2.7,1.8
				c1,0.4,2,0.9,3.1,1.2c1,0.3,2,0.7,2.9,1.1c0.9,0.4,1.6,0.8,2.2,1.4c0.5,0.5,0.9,1.2,1,2c0.2,0.9,0,1.7-0.4,2.4
				c-0.4,0.7-1.1,1.4-1.9,1.8c-0.9,0.5-1.8,0.8-2.8,1c-1.1,0.2-2.1,0.2-2.8-0.1c-0.8-0.3-1.4-0.6-1.8-1.2c-0.4-0.5-0.7-1.2-0.9-1.9
				c-0.1-0.7-0.1-1.4,0.1-2.2c0.2-0.8,0.6-1.6,1.1-2.5l1-1.5l-1.7,0.3c-0.8,0.2-1.7,0.5-2.5,0.9c-0.9,0.5-1.6,1.2-2,2.2
				c-0.1,0.3-0.2,0.5-0.3,0.8l-1.9-0.8l-0.2,0.8c-0.4,1.4-1,2.7-1.8,4c-0.8,1.3-1.7,2.4-2.8,3.3c-1,0.9-2.1,1.4-3.2,1.6
				c-1,0.2-1.8,0.1-2.4-0.2c-0.6-0.3-1.2-0.8-1.5-1.4c-0.4-0.7-0.6-1.3-0.8-2c-0.2-1.1-0.1-2.2,0.3-3.5c0.4-1.2,1.1-2.4,2.1-3.5
				c1-1,2.2-1.8,3.7-2.3l1.6-0.6l-1.5-0.8c-0.9-0.5-1.6-1.2-2.1-2c-0.5-0.9-0.8-1.8-1-2.7c-0.2-1-0.2-2.1,0-3.1
				c0.2-1,0.5-1.8,1.1-2.5c0.5-0.6,1.2-1,2.1-1.2c0.6-0.1,1.1-0.1,1.5,0.2c0.3,0.2,0.5,0.5,0.6,1c0.1,0.7,0,1.4-0.4,2.2
				c-0.4,0.9-1,1.7-1.7,2.6l-0.4,0.5l0.4,0.5c0.3,0.4,0.6,0.7,1,1c0.5,0.3,1,0.5,1.5,0.4c0.6-0.1,1.2-0.6,1.7-1.4
				c0.4-0.7,0.7-1.5,0.9-2.5c0.2-1,0.2-2,0-3c-0.3-1.5-0.9-2.6-2-3.3c-1-0.7-2.3-0.8-3.9-0.6c-1.6,0.3-3,0.9-4.1,1.9
				c-1.1,1-1.9,2.2-2.4,3.5c-0.5,1.4-0.6,2.7-0.4,4.1c0.2,1.1,0.6,2.1,1.3,3.1c0.4,0.6,0.9,1.1,1.5,1.6c-0.8,0.4-1.6,0.8-2.3,1.3
				c-1.1,0.8-2,1.8-2.7,2.8c-0.7,1.1-1.2,2.2-1.5,3.4c-0.3,1.2-0.4,2.4-0.1,3.6c0.2,1.3,0.8,2.5,1.7,3.5c0.9,1,2,1.7,3.3,2.1
				c0.8,0.3,1.7,0.4,2.6,0.4c0.6,0,1.2-0.1,1.8-0.2c1.8-0.3,3.4-1,4.7-2.1c1.3-1.1,2.5-2.4,3.5-4c0.8-1.3,1.4-2.6,2-4.1
				c0,0.3,0.1,0.6,0.1,0.9c0.3,1.6,1,2.9,2,3.8c1,0.9,2.2,1.5,3.7,1.8c0.7,0.1,1.4,0.2,2.2,0.2c0.7,0,1.4-0.1,2.1-0.2
				c1.2-0.2,2.4-0.6,3.5-1.2c1.1-0.6,2.2-1.3,3-2.2c0.9-0.9,1.6-1.9,2-3.1c0.4-1.2,0.5-2.4,0.3-3.8C60,142,59.5,140.9,58.7,140z"/>
		</g>
		<g>
			<path class="st0" d="M81.8,120l0-0.6c0-0.4-0.3-0.7-0.8-0.8c-0.2,0-0.7-0.2-1.5-0.4l-0.3,0c-0.9,0.1-1.7,0.2-2.6,0.3
				c-0.9,0.1-1.9,0.2-2.8,0.3c-1,0.1-2.1,0.3-3.3,0.5c-1.7,0.3-3.3,0.7-4.6,1.1c-1.4,0.5-2.5,1.1-3.3,1.8c-0.9,0.8-1.3,1.8-1.2,3
				l0.1,1l0.9-0.3c1-0.4,1.9-0.7,2.8-0.9c0.9-0.3,1.9-0.5,3-0.8c0.8-0.2,1.8-0.4,2.9-0.6c-0.2,1-0.5,2.1-0.7,3.2
				c-0.4,1.6-0.7,3.2-1,4.9c-0.3,1.7-0.7,3.4-1,5.1c-0.3,1.7-0.6,3.4-0.9,5c-0.1,1-0.2,1.9-0.3,2.9c-0.1,1.1-0.1,2,0,2.7
				c0.2,1,0.6,1.7,1.3,2.3c0.5,0.4,1.1,0.6,2,0.6c0.4,0,0.8,0,1.3-0.1l0.8-0.1l-0.2-0.8c-0.1-0.2-0.1-0.4-0.1-0.5
				c0-0.1-0.1-0.2-0.1-0.3c-0.1-0.7-0.2-1.4-0.2-2.1c0-0.7,0-1.5,0.1-2.4l0.2-3.2c0.3-3.3,0.7-6.5,1.1-9.6c0.4-2.9,0.9-5.6,1.4-8.1
				c0.7-0.1,1.3-0.3,2-0.4c0.9-0.2,1.8-0.5,2.6-0.9c0.8-0.3,1.4-0.8,2-1.3L81.8,120z"/>
		</g>
		<g>
			<path class="st0" d="M102.1,133.9c-0.6,1.9-1.2,3.4-1.8,4.3c-0.7,1.1-1.2,1.3-1.3,1.3c-0.1,0-0.2,0-0.3-0.2
				c-0.2-0.4-0.4-1-0.6-1.8c-0.2-1-0.3-2.2-0.3-3.5c0-1.4,0-2.8,0-4.3c0.1-1.5,0.2-3,0.3-4.5c0.2-1.5,0.3-2.9,0.5-4.2
				c0.2-1.2,0.4-2.3,0.6-3.1c0.3-1.1,0.5-1.3,0.5-1.3l0.6-0.7l-0.8-0.5c-0.5-0.3-1-0.6-1.5-0.8c-0.6-0.2-1.1-0.3-1.5-0.2
				c-0.7,0.1-1.5,0.8-2.4,2.2c-0.7,0.9-1.4,2.1-2.2,3.6c-0.8,1.4-1.7,3.1-2.6,4.9c-0.8,1.7-1.7,3.4-2.5,5.2c-0.3,0-0.6,0-0.9,0.1
				c-1.7,0.1-3,0.5-4,1.2c-0.8,0.6-1.3,1.4-1.5,2.4l-0.2,1.1l1.9-0.3c0.8-0.1,1.5-0.3,2.2-0.4c0.3,0,0.6-0.1,0.9-0.1
				c-0.5,1.3-1,2.6-1.4,3.7c-0.5,1.6-1,3-1.2,4.2c-0.3,1.3-0.4,2.3-0.3,3c0.1,0.4,0.3,0.8,0.6,1.2c0.3,0.5,0.9,0.9,1.8,1.2l0.8,0.3
				l0.2-0.8c0.5-2.2,1.1-4.6,1.8-6.9c0.6-2.2,1.3-4.3,2-6.3c0.6,0,1.2-0.1,1.9-0.1c0.6,0,1.3-0.1,2.1-0.1c0,0.7,0,1.4,0.1,2
				c0.1,0.8,0.1,1.5,0.3,2.2c0.3,1.7,0.8,3.1,1.5,4c0.8,1.1,1.9,1.5,3.3,1.3c1.5-0.3,2.8-1.2,3.8-2.8c1-1.5,1.7-3.4,2.1-5.5l0.1-0.5
				l-1.9-1.4L102.1,133.9z M94.3,121.6c0,0.1,0,0.2-0.1,0.4c-0.2,1.5-0.5,3-0.6,4.5c-0.1,1.3-0.3,2.6-0.3,3.9c-0.5,0-1-0.1-1.5-0.1
				c-0.4,0-0.9,0-1.3-0.1c0.6-1.6,1.2-3.1,1.8-4.5C92.9,124.2,93.6,122.8,94.3,121.6z"/>
		</g>
		<g>
			<path class="st0" d="M127,137.1c-0.2-0.2-0.7-0.7-1-2.4c-0.2-1.1-0.3-2.4-0.3-3.9c0-1.5,0-3.2,0.2-4.9c0.1-1.7,0.3-3.4,0.5-5.1
				c0.2-1.7,0.4-3.2,0.7-4.6c0.3-1.4,0.5-2.5,0.8-3.4c0.3-1.1,0.5-1.4,0.5-1.4l0.6-0.6l-0.7-0.5c-0.5-0.4-1-0.6-1.5-0.8
				c-0.6-0.2-1-0.3-1.4-0.2c-0.7,0.1-1.3,0.7-1.7,1.8c-0.3,0.9-0.6,2-0.8,3.4c-0.2,1.4-0.4,2.9-0.6,4.5c-0.2,1.6-0.3,3.3-0.4,4.9
				c-0.1,1.7-0.2,3.2-0.3,4.7c0,0.9-0.2,2-0.4,3.1c-0.2,1.1-0.5,2.2-1,3.2c-0.4,1-0.9,1.8-1.6,2.5c-0.6,0.6-1.3,1-2.1,1.2
				c-0.8,0.1-1.4,0-1.8-0.5c-0.5-0.6-0.8-1.3-1-2.3c-0.2-1.1-0.2-2.4-0.1-3.8c0.1-1.5,0.3-3.3,0.6-5.2c0.2-1.1,0.3-2.3,0.4-3.5
				c0.1-1.2,0.2-2.4,0.2-3.5c0-1.1,0-2.2-0.2-3.1c-0.3-1.5-0.9-2.7-1.8-3.5c-0.9-0.9-2.2-1.1-3.8-0.8c-1.1,0.2-2.1,0.6-3,1.2
				c-0.8,0.6-1.6,1.3-2.2,2.1c-0.6,0.8-1,1.7-1.2,2.6c-0.2,0.9-0.3,1.8-0.1,2.7c0.2,0.9,0.6,1.7,1.3,2.2c0.7,0.6,1.7,0.7,3,0.5
				l1-0.2l-0.5-0.9c-0.1-0.2-0.3-0.5-0.4-0.9c-0.1-0.3-0.2-0.6-0.3-0.9c-0.1-0.4-0.1-0.9-0.1-1.5c0-0.6,0.1-1.2,0.3-1.8
				c0.2-0.6,0.4-1.1,0.7-1.5c0.3-0.3,0.6-0.6,1.1-0.6c0.3-0.1,1.2-0.2,1.6,2.2c0.2,1.1,0.3,2.2,0.2,3.5c-0.1,1.3-0.2,2.7-0.3,4.1
				c-0.2,1.4-0.4,2.9-0.6,4.3c-0.2,1.4-0.3,2.8-0.4,4.1c-0.1,1.3,0,2.5,0.2,3.6c0.3,1.8,1.1,3.1,2.2,4c0.9,0.7,1.9,1,3.2,1
				c0.4,0,0.8,0,1.3-0.1c1.9-0.3,3.5-1.2,4.6-2.7c0.5-0.7,1-1.4,1.4-2.3c0.3,1,0.8,1.9,1.5,2.5c0.9,0.8,1.9,1.1,3,0.9
				c0.5-0.1,1.1-0.3,1.7-0.7c0.6-0.4,1.1-0.9,1.4-1.4l0.8-1.4l-1.6,0.3C128.1,137.5,127.4,137.4,127,137.1z"/>
		</g>
		<g>
			<path class="st0" d="M148.5,131.1c-1.3-0.9-2.4-1.9-3.4-2.8c-1-1-2-2-2.9-3c-0.6-0.7-1.3-1.5-2-2.2c0.3-0.1,0.5-0.1,0.8-0.2
				c0.9-0.2,1.8-0.5,2.8-0.9c1-0.4,2-0.9,3-1.4c1-0.6,1.9-1.2,2.7-2c0.8-0.8,1.4-1.7,1.8-2.7c0.4-1,0.5-2.2,0.3-3.5
				c-0.2-1.3-0.8-2.5-1.6-3.3c-0.8-0.8-1.8-1.5-2.9-1.9c-1.1-0.4-2.3-0.6-3.5-0.7c-2.4-0.1-4.6,0.3-6.8,1.2c-1,0.4-2,0.9-2.8,1.4
				c-0.8,0.5-1.5,0.9-2.2,1.3l-0.4,0.3l0.1,0.5c0.1,0.3,0.3,0.6,0.6,0.9c0.3,0.2,0.6,0.4,0.9,0.5c0.4,0.2,0.7,0.2,0.9,0.2
				c0.2,0,0.5-0.2,1.2-0.7c0.4-0.3,0.9-0.7,1.5-1.1c0.3-0.2,0.5-0.3,0.8-0.5c-0.3,1.4-0.6,2.6-0.9,3.8c-0.4,1.6-0.7,3.2-1,4.7
				c-0.3,1.5-0.6,3-0.8,4.5c-0.3,1.5-0.5,3.2-0.8,4.9l-0.8,5.8c0,0.3-0.1,0.7-0.1,1.1c-0.1,0.5-0.1,0.9,0,1.2
				c0.1,0.8,0.7,1.5,1.5,1.8c0.5,0.2,1.1,0.3,1.6,0.3c0.2,0,0.5,0,0.7-0.1l0.6-0.1l0.1-0.6c0.2-1.9,0.4-4,0.6-6.3
				c0.1-1.6,0.3-3.3,0.5-5c0.4,0.5,0.7,1,1.1,1.5c0.9,1.1,1.8,2.2,2.8,3.3c1,1.1,2,2.1,3,3c1,0.9,1.9,1.6,2.8,2.2
				c1,0.6,1.8,0.8,2.6,0.7c0.5-0.1,1-0.4,1.5-0.8c0.5-0.5,0.9-1,0.9-1.6l0.1-0.5l-0.5-0.2C151.2,132.9,149.8,132,148.5,131.1z
				 M140.1,114.7c0.3-2.1,0.7-3.9,1.2-5.6c0.8-0.1,1.7-0.1,2.5,0c0.9,0.1,1.6,0.4,2.3,1c0.6,0.5,1,1.3,1.2,2.3
				c0.2,1.1,0.1,2.1-0.3,2.9c-0.4,0.9-1.1,1.7-1.9,2.5c-0.9,0.7-1.9,1.4-3.1,1.9c-0.8,0.4-1.7,0.7-2.6,1
				C139.5,118.7,139.8,116.6,140.1,114.7z"/>
		</g>
		<g>
			<path class="st0" d="M174.1,121c-0.6,1.9-1.2,3.4-1.8,4.3c-0.7,1.1-1.2,1.3-1.3,1.3c-0.1,0-0.2,0-0.3-0.2c-0.2-0.4-0.4-1-0.6-1.8
				c-0.2-1-0.3-2.2-0.3-3.5c0-1.4,0-2.8,0-4.3s0.2-3,0.3-4.5c0.2-1.5,0.3-2.9,0.5-4.2c0.2-1.2,0.4-2.3,0.6-3.1
				c0.3-1.1,0.5-1.3,0.5-1.3l0.6-0.7l-0.8-0.5c-0.5-0.3-1-0.6-1.5-0.8c-0.6-0.2-1.1-0.3-1.5-0.2c-0.7,0.1-1.5,0.8-2.5,2.2
				c-0.7,0.9-1.4,2.1-2.2,3.6c-0.8,1.4-1.7,3.1-2.6,4.9c-0.8,1.7-1.7,3.4-2.5,5.2c-0.3,0-0.6,0-0.9,0.1c-1.7,0.1-3,0.5-4,1.2
				c-0.8,0.6-1.3,1.4-1.5,2.4l-0.2,1.1l1.9-0.3c0.8-0.1,1.5-0.3,2.2-0.4c0.3,0,0.6-0.1,0.9-0.1c-0.5,1.3-1,2.6-1.4,3.7
				c-0.5,1.6-1,3-1.2,4.2c-0.3,1.3-0.4,2.3-0.3,3c0.1,0.4,0.3,0.8,0.6,1.2c0.3,0.5,0.9,0.9,1.8,1.2l0.8,0.3l0.2-0.8
				c0.5-2.2,1.1-4.6,1.8-6.9c0.6-2.2,1.3-4.3,2-6.3c0.6,0,1.2-0.1,1.9-0.1c0.6,0,1.3-0.1,2.1-0.1c0,0.7,0,1.4,0.1,2
				c0.1,0.8,0.1,1.5,0.3,2.2c0.3,1.7,0.8,3.1,1.5,4c0.8,1.1,1.9,1.5,3.3,1.3c1.5-0.3,2.8-1.2,3.8-2.8c1-1.5,1.7-3.4,2.1-5.5l0.1-0.5
				l-1.9-1.4L174.1,121z M166.2,108.7c0,0.1,0,0.2-0.1,0.4c-0.2,1.5-0.5,3-0.6,4.5c-0.1,1.3-0.3,2.6-0.3,3.9c-0.5,0-1-0.1-1.5-0.1
				c-0.4,0-0.9,0-1.3-0.1c0.6-1.6,1.2-3.1,1.8-4.5C164.9,111.3,165.6,109.9,166.2,108.7z"/>
		</g>
		<g>
			<path class="st0" d="M195.4,97.6c-0.4,0.6-0.7,1.1-0.8,1.6c-0.2,0.5-0.3,1.2-0.4,2.1c-0.1,0.9-0.3,1.9-0.4,3.1
				c-0.1,1.2-0.2,2.5-0.4,3.9c-0.1,1.4-0.2,2.8-0.3,4.2c-0.1,1.4-0.2,2.8-0.2,4.1c-0.3-0.8-0.6-1.7-0.9-2.8l-1.3-4
				c-0.5-1.4-0.9-2.8-1.4-4.1c-0.5-1.3-1-2.5-1.5-3.5c-0.5-1.1-1.2-1.9-1.9-2.5c-1.4-1.2-3.2-1-5.2,0.4c-0.8,0.6-1.6,1.3-2.2,2.2
				c-0.7,0.9-1.2,1.8-1.6,2.7c-0.4,1-0.5,2-0.4,3c0.1,0.8,0.5,1.5,1.2,2c0.6,0.5,1.5,0.6,2.7,0.4l1.1-0.2l-0.6-0.9
				c-0.2-0.4-0.4-0.8-0.5-1.2c-0.1-0.5-0.1-1,0-1.7c0.1-0.7,0.2-1.3,0.5-1.9c0.2-0.6,0.5-1.1,0.9-1.6c0.2-0.3,0.4-0.4,0.7-0.5
				c0,0.2,0,0.4,0,0.6l0,0.5c-0.4,3.7-0.8,7-1.1,9.8c-0.3,2.8-0.6,5.2-0.9,7.2c-0.2,2-0.5,3.8-0.7,5.3c-0.2,1.5-0.3,2.9-0.5,4.1
				l-0.1,1l1-0.2c0.7-0.1,1.3-0.5,1.7-1c0.4-0.5,0.8-1.3,1.1-2.5c0.3-1.1,0.5-2.5,0.8-4.3c0.3-1.8,0.5-4.2,0.8-7.1
				c0.2-2.1,0.4-4.5,0.7-7.2c0.3,0.9,0.7,1.9,1.1,3c0.5,1.3,1,2.7,1.4,4.1c0.5,1.4,1,2.7,1.4,4c0.5,1.3,0.9,2.4,1.2,3.3
				c0.4,1,0.6,1.7,0.8,2.1c0.5,1.3,1.2,2.1,1.9,2.5c0.7,0.4,1.6,0.5,2.6,0.3l0.7-0.1l-0.1-0.7c-0.2-0.9-0.3-2.1-0.3-3.5
				c0-1.5,0-3.2,0.1-5c0.1-1.8,0.2-3.8,0.3-5.7c0.1-2,0.3-3.9,0.5-5.8c0.2-1.9,0.4-3.7,0.6-5.4c0.2-1.7,0.4-3.1,0.6-4.2l0.2-1.1
				l-1.1,0.2C196.6,96.5,195.9,97,195.4,97.6z"/>
		</g>
		<g>
			<path class="st0" d="M219.6,93.8l-0.1,0.2l0,0L219.6,93.8L219.6,93.8c-0.2-0.1-0.7-0.2-1.5-0.4l-0.3,0c-0.9,0.1-1.7,0.2-2.6,0.3
				c-0.9,0.1-1.9,0.2-2.8,0.3c-1,0.1-2.1,0.3-3.3,0.5c-1.7,0.3-3.3,0.7-4.6,1.1c-1.4,0.5-2.5,1.1-3.3,1.8c-0.9,0.8-1.3,1.8-1.2,3
				l0.1,1l0.9-0.3c1-0.4,1.9-0.7,2.8-0.9c0.9-0.3,1.9-0.5,3-0.8c0.8-0.2,1.8-0.4,2.9-0.6c-0.2,1-0.5,2.1-0.7,3.2
				c-0.3,1.6-0.7,3.2-1,4.9c-0.3,1.7-0.7,3.5-1,5.1c-0.3,1.7-0.6,3.4-0.9,5c-0.1,0.9-0.2,1.9-0.3,2.9c-0.1,1.1-0.1,2,0,2.7
				c0.2,1,0.6,1.7,1.3,2.3c0.5,0.4,1.1,0.6,2,0.6c0.4,0,0.8,0,1.3-0.1l0.8-0.1l-0.2-0.8c-0.1-0.2-0.1-0.4-0.1-0.5
				c0-0.1-0.1-0.2-0.1-0.3c-0.1-0.7-0.2-1.4-0.2-2.1c0-0.7,0-1.5,0.1-2.4l0.2-3.2c0.3-3.3,0.7-6.5,1.1-9.6c0.4-2.9,0.9-5.6,1.4-8.1
				c0.7-0.1,1.4-0.3,2-0.4c0.9-0.2,1.8-0.5,2.6-0.9c0.8-0.3,1.4-0.8,2-1.3l0.4-0.1l0-0.6C220.4,94.2,220.1,93.9,219.6,93.8z"/>
		</g>
	</g>
	<g>
		<g>
			<path class="st0" d="M124.1,175.6c-0.3,0-0.6-0.1-0.8-0.3c-0.5-0.5-0.6-1.2-0.1-1.8l6.4-7.4c0.3-0.4,0.8-0.5,1.3-0.4
				c2.7,0.7,6.2-0.6,8.5-3.3c3.1-3.6,3.5-8.4,0.8-10.8c-2.7-2.3-7.4-1.3-10.5,2.3c-2.4,2.7-3.2,6.3-2.1,8.9c0.2,0.4,0.1,0.9-0.2,1.3
				l-7.4,8.6c-0.5,0.5-1.2,0.6-1.8,0.1c-0.5-0.5-0.6-1.2-0.1-1.8l7-8c-1.1-3.4,0-7.5,2.8-10.8c4-4.6,10.3-5.8,14.1-2.5
				c3.7,3.2,3.5,9.6-0.5,14.3c-2.8,3.2-6.8,4.8-10.3,4.3l-5.9,6.8C124.8,175.5,124.4,175.6,124.1,175.6z"/>
		</g>
		<g>
			<path class="st0" d="M112.6,187.4c-0.9,0-1.9-0.3-2.6-1c-1.7-1.4-1.8-4-0.4-5.6l4.4-5.1c0.5-0.5,1.2-0.6,1.8-0.1
				c0.5,0.5,0.6,1.2,0.1,1.8l-4.4,5.1c-0.5,0.6-0.5,1.6,0.1,2.1c0.6,0.5,1.6,0.5,2.1-0.2l5.2-6c0.5-0.5,1.2-0.6,1.8-0.1
				c0.5,0.5,0.6,1.2,0.1,1.8l-5.2,6C114.8,186.9,113.7,187.4,112.6,187.4z"/>
		</g>
		<g>
			<g>
				<path class="st7" d="M97,169.4c-4.8-2.5-7.1-7.6-5.2-11.4c2-3.8,7.5-4.8,12.3-2.3c3.7,2,5.9,5.4,5.8,8.7l21.4,11.2
					c1.3,0.7,1.9,2.4,1.2,3.7l0,0c-0.7,1.3-2.4,1.9-3.7,1.2l-21.4-11.2C104.9,171.2,100.8,171.4,97,169.4z"/>
				<path class="st1" d="M130.1,181.1c-0.5,0-1-0.1-1.4-0.3l-21.2-11.1c-2.8,2-6.9,2-10.6,0.1l0,0c-2.4-1.3-4.2-3.2-5.2-5.4
					c-1-2.2-1-4.5,0-6.4c1-1.9,2.9-3.2,5.3-3.6c2.4-0.4,5,0,7.4,1.3c3.7,1.9,6,5.4,6,8.8l21.2,11.1c0.7,0.4,1.2,1,1.5,1.8
					s0.2,1.6-0.2,2.3c-0.4,0.7-1,1.2-1.8,1.5C130.7,181,130.4,181.1,130.1,181.1z M107.5,169l0.1,0.1l21.4,11.2
					c0.6,0.3,1.3,0.4,1.9,0.2c0.6-0.2,1.2-0.6,1.5-1.2s0.4-1.3,0.2-1.9c-0.2-0.6-0.6-1.2-1.2-1.5l-21.5-11.3l0-0.2
					c0.1-3.2-2.2-6.6-5.7-8.5c-2.3-1.2-4.8-1.6-7.1-1.2c-2.3,0.4-4,1.6-4.9,3.4c-0.9,1.8-0.9,3.9,0,6c1,2.1,2.7,3.9,5,5.1l0,0
					c3.5,1.8,7.6,1.8,10.2-0.1L107.5,169z"/>
			</g>
			<g>
				<path class="st0" d="M128.4,184.6c-0.6,0-1.3-0.1-1.9-0.5l-20.7-10.9c-3.1,1.8-7.3,1.8-11.1-0.2c-2.6-1.4-4.6-3.4-5.7-5.8
					c-1.1-2.5-1.1-5.1,0-7.3s3.3-3.6,6-4.1c2.6-0.5,5.5,0,8,1.4c3.8,2,6.3,5.5,6.5,9l20.7,10.9c0.9,0.5,1.6,1.3,2,2.4
					s0.2,2.1-0.3,3.1C131.2,183.8,129.8,184.6,128.4,184.6z M105.8,170.6c0.2,0,0.4,0,0.6,0.1l21.4,11.2c0.7,0.4,1.6,0.1,2-0.6
					c0.2-0.4,0.2-0.8,0.1-1.1c-0.1-0.4-0.4-0.7-0.7-0.9L107.8,168c-0.4-0.2-0.7-0.7-0.7-1.1c0.1-2.8-2-5.9-5.2-7.5
					c-2.1-1.1-4.4-1.5-6.4-1.1c-1.9,0.4-3.4,1.4-4.2,2.8c-0.8,1.5-0.8,3.3,0.1,5.1c0.9,1.9,2.5,3.6,4.6,4.7l0,0
					c3.2,1.7,6.9,1.7,9.1,0C105.3,170.6,105.5,170.6,105.8,170.6z"/>
			</g>
		</g>
	</g>
	<g>
		<g>
			<g>
				<polygon class="st7" points="118.2,56.8 69.4,65.5 67.7,56 117.1,47.5 				"/>
			</g>
			<g>
				<path class="st1" d="M69.2,65.8l-1.8-10l0.2,0l49.6-8.6l1.1,9.8L69.2,65.8z M68,56.2l1.6,9l48.3-8.6l-1-8.9L68,56.2z"/>
			</g>
		</g>
		<g>
			<g>
				<g>
					<path class="st0" d="M73.9,62.1c-0.6,0-1.1-0.4-1.2-1L68,40.6c-0.2-0.7,0.3-1.3,0.9-1.5c0.7-0.2,1.3,0.3,1.5,0.9l4.4,19.4
						l46-8.2l-2.5-19.7c-0.1-0.7,0.4-1.3,1.1-1.4c0.7-0.1,1.3,0.4,1.4,1.1l2.7,20.9c0.1,0.7-0.4,1.3-1,1.4l-48.3,8.6
						C74,62.1,73.9,62.1,73.9,62.1z"/>
				</g>
			</g>
			<g>
				<g>
					<path class="st0" d="M67.5,38.1C67.5,38.1,67.5,38.1,67.5,38.1C61.3,37.9,56,33.4,55,27.3c-0.6-3.4,0.1-6.9,2.1-9.8
						c2-2.9,5-4.8,8.4-5.4c2.6-0.5,5.2-0.1,7.6,0.9c1.4-6.5,6.6-11.7,13.3-12.9c6.9-1.2,13.8,2.1,17.2,8c1.9-2.2,4.6-3.7,7.5-4.2
						c3.4-0.6,6.9,0.1,9.8,2.1c2.9,2,4.8,5,5.4,8.4c1.1,5.9-2,11.7-7.5,14.2c-0.6,0.3-1.4,0-1.7-0.6c-0.3-0.6,0-1.4,0.6-1.7
						c4.4-2,6.9-6.7,6-11.5c-0.5-2.8-2-5.2-4.4-6.8c-2.3-1.6-5.1-2.2-7.9-1.7c-2.9,0.5-5.5,2.3-7.1,4.8c-0.2,0.4-0.7,0.6-1.2,0.6
						c-0.5,0-0.9-0.3-1.1-0.8c-2.5-6-9-9.6-15.4-8.4c-6.2,1.1-10.9,6.2-11.5,12.5c0,0.4-0.3,0.8-0.7,1c-0.4,0.2-0.8,0.2-1.2-0.1
						c-2.2-1.4-4.9-1.9-7.4-1.5c-2.8,0.5-5.2,2-6.8,4.4c-1.6,2.3-2.2,5.1-1.7,7.9c0.9,4.9,5.1,8.6,10.1,8.7c0.7,0,1.2,0.6,1.2,1.3
						C68.7,37.6,68.2,38.1,67.5,38.1z"/>
				</g>
			</g>
			<g>
				<g>
					<path class="st0" d="M71.8,52.4c-0.6,0-1.1-0.4-1.2-1c-0.1-0.7,0.3-1.3,1-1.5l40.2-7.2c0.7-0.1,1.3,0.3,1.5,1
						c0.1,0.7-0.3,1.3-1,1.5L72,52.4C71.9,52.4,71.9,52.4,71.8,52.4z"/>
				</g>
			</g>
			<g>
				<g>
					<path class="st0" d="M94.4,39c-0.6,0-1.1-0.4-1.2-1L93,37.1c-0.1-0.7,0.3-1.3,1-1.5c0.7-0.1,1.3,0.3,1.5,1l0.2,0.9
						c0.1,0.7-0.3,1.3-1,1.5C94.5,39,94.4,39,94.4,39z"/>
				</g>
			</g>
			<g>
				<g>
					<path class="st0" d="M95.9,47.6c-0.6,0-1.1-0.4-1.2-1L94,42.6c-0.1-0.7,0.3-1.3,1-1.5c0.7-0.1,1.3,0.3,1.5,1l0.7,3.9
						c0.1,0.7-0.3,1.3-1,1.5C96,47.6,96,47.6,95.9,47.6z"/>
				</g>
			</g>
			<g>
				<g>
					<path class="st0" d="M103.8,46.2C103.7,46.2,103.7,46.2,103.8,46.2c-0.8,0-1.3-0.6-1.2-1.3l0.4-6.9c0-0.7,0.6-1.2,1.3-1.2
						c0.7,0,1.2,0.6,1.2,1.3L105,45C105,45.6,104.4,46.2,103.8,46.2z"/>
				</g>
			</g>
			<g>
				<g>
					<path class="st0" d="M88.1,49c-0.5,0-1-0.3-1.2-0.8l-2.5-6.4c-0.3-0.6,0.1-1.4,0.7-1.6c0.6-0.3,1.4,0.1,1.6,0.7l2.5,6.4
						c0.3,0.6-0.1,1.4-0.7,1.6C88.4,48.9,88.3,49,88.1,49z"/>
				</g>
			</g>
			<g>
				<g>
					<path class="st0" d="M88.8,34c-2.2,0-4.5-0.4-6.5-1.3c-0.6-0.3-0.9-1-0.7-1.6c0.3-0.6,1-0.9,1.6-0.7c5.5,2.4,12.4,0.9,16.5-3.6
						c0.5-0.5,1.3-0.6,1.8-0.1c0.5,0.5,0.6,1.3,0.1,1.8C98.4,32.1,93.6,34,88.8,34z"/>
				</g>
			</g>
			<g>
				<g>
					<path class="st0" d="M112.9,30.2c-1.6,0-3.3-0.3-4.8-0.9c-0.6-0.3-1-1-0.7-1.6c0.3-0.6,1-1,1.6-0.7c2.9,1.2,6.2,1,9-0.5
						c0.6-0.3,1.4-0.1,1.7,0.5c0.3,0.6,0.1,1.4-0.5,1.7C117.2,29.6,115,30.2,112.9,30.2z"/>
				</g>
			</g>
			<g>
				<g>
					<path class="st0" d="M67,38c-0.3,0-0.5,0-0.8,0c-0.7-0.1-1.2-0.7-1.1-1.4c0.1-0.7,0.7-1.2,1.4-1.1c2.6,0.2,5.3-1.2,6.6-3.6
						c0.3-0.6,1.1-0.8,1.7-0.5c0.6,0.3,0.8,1.1,0.5,1.7C73.7,36,70.4,38,67,38z"/>
				</g>
			</g>
			<g>
				<g>
					<path class="st0" d="M117.2,44.5c-0.6,0-1.1-0.4-1.2-1c-0.1-0.7,0.3-1.3,1-1.5l3.3-0.6c0.7-0.1,1.3,0.3,1.5,1
						c0.1,0.7-0.3,1.3-1,1.5l-3.3,0.6C117.4,44.5,117.3,44.5,117.2,44.5z"/>
				</g>
			</g>
		</g>
	</g>
</g>
</svg>
